<svg width="18" height="22" viewBox="0 0 18 22" fill="none" xmlns="http://www.w3.org/2000/svg">
<path d="M10.5 15.875C10.5 16.1717 10.412 16.4617 10.2472 16.7084C10.0824 16.955 9.84811 17.1473 9.57403 17.2608C9.29994 17.3744 8.99834 17.4041 8.70736 17.3462C8.41639 17.2883 8.14912 17.1454 7.93934 16.9357C7.72956 16.7259 7.5867 16.4586 7.52882 16.1676C7.47094 15.8767 7.50065 15.5751 7.61418 15.301C7.72771 15.0269 7.91997 14.7926 8.16665 14.6278C8.41332 14.463 8.70333 14.375 9 14.375C9.39782 14.375 9.77936 14.533 10.0607 14.8143C10.342 15.0956 10.5 15.4772 10.5 15.875ZM17.25 8.75V13.25C17.25 15.438 16.3808 17.5365 14.8336 19.0836C13.2865 20.6308 11.188 21.5 9 21.5C6.81196 21.5 4.71354 20.6308 3.16637 19.0836C1.61919 17.5365 0.75 15.438 0.75 13.25V5C0.75 4.60218 0.908035 4.22064 1.18934 3.93934C1.47064 3.65804 1.85218 3.5 2.25 3.5C2.64782 3.5 3.02936 3.65804 3.31066 3.93934C3.59196 4.22064 3.75 4.60218 3.75 5V10.25C3.75 10.4489 3.82902 10.6397 3.96967 10.7803C4.11032 10.921 4.30109 11 4.5 11C4.69891 11 4.88968 10.921 5.03033 10.7803C5.17098 10.6397 5.25 10.4489 5.25 10.25V2C5.25 1.60218 5.40804 1.22064 5.68934 0.93934C5.97064 0.658035 6.35218 0.5 6.75 0.5C7.14782 0.5 7.52936 0.658035 7.81066 0.93934C8.09196 1.22064 8.25 1.60218 8.25 2V9.5C8.25 9.69891 8.32902 9.88968 8.46967 10.0303C8.61032 10.171 8.80109 10.25 9 10.25C9.19891 10.25 9.38968 10.171 9.53033 10.0303C9.67098 9.88968 9.75 9.69891 9.75 9.5V3.5C9.75 3.10218 9.90804 2.72064 10.1893 2.43934C10.4706 2.15804 10.8522 2 11.25 2C11.6478 2 12.0294 2.15804 12.3107 2.43934C12.592 2.72064 12.75 3.10218 12.75 3.5V11C12.75 11.1989 12.829 11.3897 12.9697 11.5303C13.1103 11.671 13.3011 11.75 13.5 11.75C13.6989 11.75 13.8897 11.671 14.0303 11.5303C14.171 11.3897 14.25 11.1989 14.25 11V8.75C14.25 8.35218 14.408 7.97064 14.6893 7.68934C14.9706 7.40804 15.3522 7.25 15.75 7.25C16.1478 7.25 16.5294 7.40804 16.8107 7.68934C17.092 7.97064 17.25 8.35218 17.25 8.75ZM13.8356 15.7072C13.77 15.5759 12.195 12.5 9 12.5C5.805 12.5 4.23 15.5759 4.16437 15.7072C4.1383 15.7593 4.12473 15.8167 4.12473 15.875C4.12473 15.9333 4.1383 15.9907 4.16437 16.0428C4.23 16.1741 5.805 19.25 9 19.25C12.195 19.25 13.77 16.1741 13.8356 16.0428C13.8617 15.9907 13.8753 15.9333 13.8753 15.875C13.8753 15.8167 13.8617 15.7593 13.8356 15.7072Z" fill="#FF4000"/>
</svg>
