<svg width="18" height="14" viewBox="0 0 18 14" fill="none" xmlns="http://www.w3.org/2000/svg">
<path d="M10.9297 0C11.5984 1.84288e-05 12.2228 0.334243 12.5938 0.890625L13.4062 2.10938C13.7772 2.66576 14.4016 2.99998 15.0703 3H16C17.1046 3 18 3.89543 18 5V12C18 13.1046 17.1046 14 16 14H2C0.895431 14 0 13.1046 0 12V5C0 3.89543 0.895431 3 2 3H2.92969C3.59837 2.99998 4.22283 2.66576 4.59375 2.10938L5.40625 0.890625C5.77717 0.334243 6.40163 1.84288e-05 7.07031 0H10.9297ZM9 3.5C6.51472 3.5 4.5 5.51472 4.5 8C4.5 10.4853 6.51472 12.5 9 12.5C11.4853 12.5 13.5 10.4853 13.5 8C13.5 5.51472 11.4853 3.5 9 3.5ZM9 5C10.6569 5 12 6.34315 12 8C12 9.65685 10.6569 11 9 11C7.34315 11 6 9.65685 6 8C6 6.34315 7.34315 5 9 5Z" fill="#3E424A"/>
</svg>
