<svg width="100" height="100" viewBox="0 0 100 100" fill="none" xmlns="http://www.w3.org/2000/svg">
<rect x="0.5" y="0.5" width="99" height="99" rx="49.5" fill="#F8F6F7"/>
<rect x="0.5" y="0.5" width="99" height="99" rx="49.5" stroke="#E1DFE1"/>
<path d="M51.9297 43C52.5984 43 53.2228 43.3342 53.5938 43.8906L54.4062 45.1094C54.7772 45.6658 55.4016 46 56.0703 46H57C58.1046 46 59 46.8954 59 48V55C59 56.1046 58.1046 57 57 57H43C41.8954 57 41 56.1046 41 55V48C41 46.8954 41.8954 46 43 46H43.9297C44.5984 46 45.2228 45.6658 45.5938 45.1094L46.4062 43.8906C46.7772 43.3342 47.4016 43 48.0703 43H51.9297ZM50 46.5C47.5147 46.5 45.5 48.5147 45.5 51C45.5 53.4853 47.5147 55.5 50 55.5C52.4853 55.5 54.5 53.4853 54.5 51C54.5 48.5147 52.4853 46.5 50 46.5ZM50 48C51.6569 48 53 49.3431 53 51C53 52.6569 51.6569 54 50 54C48.3431 54 47 52.6569 47 51C47 49.3431 48.3431 48 50 48Z" fill="#3E424A"/>
</svg>
